<?xml version="1.0" standalone="no"?>
<!DOCTYPE svg PUBLIC "-//W3C//DTD SVG 20010904//EN"
 "http://www.w3.org/TR/2001/REC-SVG-20010904/DTD/svg10.dtd">
<svg version="1.0" xmlns="http://www.w3.org/2000/svg"
 width="196.000000pt" height="113.000000pt" viewBox="0 0 196.000000 113.000000"
 preserveAspectRatio="xMidYMid meet">

<g transform="translate(0.000000,113.000000) scale(0.100000,-0.100000)"
fill="#000000" stroke="none">
<path d="M300 1068 c0 -22 49 -102 57 -94 3 2 -7 22 -21 43 -14 20 -26 41 -26
45 0 4 16 7 35 6 19 -1 35 -6 35 -11 0 -5 6 -4 14 2 12 10 14 9 9 -7 -2 -10 3
-26 12 -35 9 -9 13 -22 9 -29 -5 -8 -2 -9 9 -5 9 3 16 3 15 -1 -1 -4 2 -14 6
-23 4 -9 3 -32 -2 -50 -7 -28 -13 -34 -33 -31 -19 2 -21 0 -9 -8 24 -16 40
-12 50 14 5 13 13 27 19 30 12 8 6 93 -8 110 -4 6 -11 23 -15 39 -6 26 -8 27
-81 27 -71 0 -75 -1 -75 -22z"/>
<path d="M490 1080 c0 -5 6 -13 14 -17 7 -4 23 -27 35 -50 13 -27 28 -43 39
-43 10 0 23 -5 30 -12 14 -14 140 -19 148 -6 11 18 -19 40 -47 34 -17 -3 -32
0 -39 9 -14 16 -35 21 -25 6 3 -5 0 -13 -6 -17 -7 -4 -9 -3 -5 4 10 16 -44 74
-63 67 -8 -3 -12 -3 -8 1 4 4 -7 14 -24 21 -37 15 -49 16 -49 3z m105 -80 c3
-5 1 -10 -4 -10 -6 0 -11 5 -11 10 0 6 2 10 4 10 3 0 8 -4 11 -10z"/>
<path d="M907 986 c-46 -13 -110 -55 -130 -87 -6 -9 -7 -28 -3 -42 8 -33 62
-87 86 -87 21 0 40 28 40 57 0 21 -32 103 -41 103 -9 0 -4 -33 9 -57 25 -46 6
-91 -30 -72 -14 8 -18 17 -14 34 3 13 2 27 -4 30 -6 4 -7 -1 -3 -11 4 -12 3
-15 -5 -10 -21 13 -13 54 14 75 15 12 44 26 65 32 32 10 42 9 63 -4 13 -9 26
-27 28 -39 6 -42 32 -26 42 25 4 26 7 49 5 51 -14 12 -82 13 -122 2z m91 -14
c7 -5 10 -16 6 -25 -7 -18 -24 -23 -24 -8 0 5 -3 16 -6 25 -7 17 3 20 24 8z"/>
<path d="M250 918 c0 -3 12 -30 27 -60 15 -29 28 -71 29 -93 1 -21 7 -41 13
-43 29 -10 -2 123 -40 169 -16 19 -29 31 -29 27z"/>
<path d="M833 905 c-3 -9 -3 -18 -1 -21 3 -3 8 4 11 16 6 23 -1 27 -10 5z"/>
<path d="M350 900 c0 -5 5 -10 10 -10 6 0 10 5 10 10 0 6 -4 10 -10 10 -5 0
-10 -4 -10 -10z"/>
<path d="M1002 838 c5 -15 28 -23 28 -10 0 5 -7 13 -16 16 -10 4 -14 1 -12 -6z"/>
<path d="M1027 791 c3 -12 9 -21 14 -21 14 0 11 16 -5 29 -12 10 -13 8 -9 -8z"/>
<path d="M624 751 c-46 -32 -98 -91 -89 -99 3 -3 36 24 73 61 73 73 77 83 16
38z"/>
<path d="M673 678 c-59 -75 -197 -262 -308 -416 -44 -61 -85 -111 -91 -112 -7
0 -15 8 -18 17 -10 26 -26 3 -36 -53 -4 -27 -12 -60 -16 -73 -6 -21 1 -18 65
24 74 50 81 59 56 69 -20 7 -13 22 64 124 64 85 284 388 320 440 41 59 15 45
-36 -20z"/>
<path d="M732 658 c-10 -18 -52 -85 -92 -148 -40 -63 -102 -163 -137 -222 -60
-102 -82 -123 -99 -97 -11 19 -24 -14 -30 -80 -7 -62 1 -76 26 -47 6 8 34 29
62 47 48 31 49 33 27 41 -34 13 -34 13 -2 60 40 58 271 442 279 462 11 29 -14
17 -34 -16z"/>
<path d="M475 620 c3 -5 12 -7 20 -3 21 7 19 13 -6 13 -11 0 -18 -4 -14 -10z"/>
<path d="M341 481 c-96 -98 -104 -104 -117 -86 -17 23 -18 22 -42 -45 -11 -30
-23 -63 -27 -74 -5 -11 -4 -17 1 -14 159 74 179 88 129 88 -14 0 -25 4 -25 9
0 4 47 55 105 111 58 57 105 108 105 112 0 22 -34 -5 -129 -101z"/>
</g>
</svg>
